# xmcd CD database file
#
# Track frame offsets:
#	150
#	20097
#	50025
#	81522
#	100265
#	113880
#
# Disc length: 1689 seconds
#
# Revision: 3
# Processed by: cddbd v1.5.2PL0 Copyright (c) Steve Scherf et al.
# Submitted via: CDex 1.51
#
DISCID=4f069706
DTITLE=Gary Moore - Separate Ways - Live Mini EP
DYEAR=1900
DGENRE=Blues
TTITLE0=Separate Ways
TTITLE1=Texas Strut (Live)
TTITLE2=Midnight Blues (Live)
TTITLE3=Oh Pretty Woman (Live)
TTITLE4=The Stumble (Live)
TTITLE5=Moving On (Live)
EXTD=
EXTT0=
EXTT1=
EXTT2=
EXTT3=
EXTT4=
EXTT5=
PLAYORDER=
